<?xml version="1.0" encoding="UTF-8"?>
<svg id="katman_1" data-name="katman 1" xmlns="http://www.w3.org/2000/svg" version="1.1" viewBox="0 0 1171.9 1584.5">
  <defs>
    <style>
      .cls-1 {
        fill: #5eb604;
      }

      .cls-1, .cls-2, .cls-3 {
        stroke-width: 0px;
      }

      .cls-2 {
        fill: #f99a0b;
      }

      .cls-3 {
        fill: #f28603;
      }
    </style>
  </defs>
  <path class="cls-1" d="M307.6,144.9c11-1.3,23.6-.7,34.7-.2,61.9,3.1,120.5,27.5,162.4,73.9,40.8,45.3,59.7,103.5,56.5,164l-9.6,2.8c-27.1-47.6-62.1-91.6-104-127.1-20.4-17.2-41.6-31.7-64.4-45.5-2.8-1.7-10.3-7.1-13.3-6.8l2.2,2.1c60.4,39.2,124.7,115.8,152.7,182.3-6.8.7-13.6,1.3-20.5,1.6-57.7,2.6-114.7-18.5-157.2-57.6-51.7-47.6-76.1-115.2-78.8-184.2,13-2.9,26-4.2,39.3-5.4Z"/>
  <path class="cls-1" d="M933.3.6c11.7-1.1,24.4-.6,36.1,0,42.6,2.2,82.7,10.8,123.6,22.4-5.3,41.7-16.7,84.9-31.8,124.1-36.9,95.7-106.9,177.8-201.6,219.5-61.3,27-151.9,38.8-215.2,14.3,40.8-83,105.6-156.5,176.2-215.6,27-21.8,55.2-42.6,84.8-60.9-18.1,4.8-36,14.1-52.6,22.7-98.1,50.5-198,143.3-256.4,236.6-.7-5.5-1.4-11-1.7-16.6-5.4-82,25-165.8,79.1-227.4C742.1,42.3,831.6,7.2,933.3.6Z"/>
  <path class="cls-3" d="M1093.8,712.5c78.9,128.8,95.7,292.1,60.7,437.4-5.1,21-12,41.3-19.6,61.5-46.5,122.8-134.4,222.5-246,290.5-129.6,79-293.7,101.9-440.8,66.1-104.1-25.3-200.7-78.2-276.7-153.9-11.3-11.3-27-25.8-36.1-38.8,13.7,1.3,28.2,6,41.7,8.9,21.6,4.6,43.3,8.1,65.3,10.5,134.5,15,271-11.9,393.4-68.2,193.4-88.9,348.7-257.7,420.4-458.1,10.5-29.5,19.8-60.4,25.9-91.1,2.4-12.1,4.8-24.3,6.8-36.5,1.3-8.2,1.5-19.6,4.5-27,.2-.4.4-.9.6-1.3Z"/>
  <path class="cls-2" d="M135.2,1375.3c-.4-.3-.8-.7-1.2-1-8.7-8.2-23-30.1-30.3-40.6-58.7-85-94.7-185.6-102.2-288.6-10.8-148.4,37.6-300.3,135.2-413.2,86.8-100.4,205.1-173.4,335.4-201.1,29.3-6.2,59.4-9.6,89.3-11.7-17.7,40.7-27.8,80.1-27.2,124.9-70.9,9.8-151.9,46.2-209.6,88-105.6,76.4-181.1,196.2-201.5,325.2-20.4,129.5,12.1,258.4,89.1,364.2-46.2-113-56.8-225.9-24.4-344.4,39.2-143.6,129.5-258.1,258.4-331.7,84.1-48.1,180.5-73.1,277.6-68.3,24.6,1.2,49.1,3.8,72.9,10.3-63.1-34.4-133.8-48.3-205.3-45.3,2.9-42.3,14.9-85,34.4-122.6,36.6,1.1,75.1,8.6,110.4,17.8,121.2,31.5,231.5,104.2,308.9,202.6,18,22.9,33.9,47.6,48.6,72.8-.2.4-.4.9-.6,1.3-3,7.5-3.2,18.9-4.5,27-2,12.2-4.4,24.4-6.8,36.5-6.1,30.7-15.3,61.6-25.9,91.1-71.7,200.4-227,369.3-420.4,458.1-122.4,56.2-258.8,83.2-393.4,68.2-21.9-2.4-43.7-5.9-65.3-10.5-13.5-2.9-28-7.6-41.7-8.9Z"/>
</svg>